<svg xmlns="http://www.w3.org/2000/svg" width="256" height="256" viewBox="0 0 100 100"><rect width="100" height="100" rx="50" fill="#6b21a8"></rect><path d="M38.16 64.39L34.39 64.39Q33.19 64.39 32.81 63.26L32.81 63.26L32.31 60.79Q31.51 61.69 30.64 62.41Q29.76 63.14 28.75 63.66Q27.74 64.19 26.58 64.48Q25.41 64.76 24.06 64.76L24.06 64.76Q21.96 64.76 20.21 63.89Q18.46 63.01 17.20 61.35Q15.94 59.69 15.25 57.24Q14.56 54.79 14.56 51.64L14.56 51.64Q14.56 48.79 15.34 46.34Q16.11 43.89 17.56 42.09Q19.01 40.29 21.04 39.28Q23.06 38.26 25.59 38.26L25.59 38.26Q27.74 38.26 29.26 38.95Q30.79 39.64 31.99 40.79L31.99 40.79L31.99 27.24L38.16 27.24L38.16 64.39ZM26.16 59.86L26.16 59.86Q28.09 59.86 29.44 59.06Q30.79 58.26 31.99 56.79L31.99 56.79L31.99 45.29Q30.94 44.01 29.70 43.49Q28.46 42.96 27.04 42.96L27.04 42.96Q25.64 42.96 24.50 43.49Q23.36 44.01 22.57 45.08Q21.79 46.14 21.36 47.78Q20.94 49.41 20.94 51.64L20.94 51.64Q20.94 53.89 21.30 55.45Q21.66 57.01 22.34 58Q23.01 58.99 23.99 59.43Q24.96 59.86 26.16 59.86ZM52.11 64.39L45.94 64.39L45.94 43.39L43.71 43.04Q42.99 42.91 42.55 42.54Q42.11 42.16 42.11 41.49L42.11 41.49L42.11 38.96L45.94 38.96L45.94 37.06Q45.94 34.86 46.60 33.11Q47.26 31.36 48.50 30.14Q49.74 28.91 51.51 28.26Q53.29 27.61 55.51 27.61L55.51 27.61Q57.29 27.61 58.81 28.09L58.81 28.09L58.69 31.19Q58.64 31.91 58.01 32.09Q57.39 32.26 56.56 32.26L56.56 32.26Q55.46 32.26 54.60 32.50Q53.74 32.74 53.14 33.33Q52.54 33.91 52.23 34.88Q51.91 35.84 51.91 37.26L51.91 37.26L51.91 38.96L58.59 38.96L58.59 43.36L52.11 43.36L52.11 64.39ZM85.44 38.74L71.46 71.44Q71.19 72.09 70.75 72.42Q70.31 72.76 69.41 72.76L69.41 72.76L64.81 72.76L69.61 62.49L59.24 38.74L64.64 38.74Q65.39 38.74 65.79 39.09Q66.19 39.44 66.39 39.89L66.39 39.89L71.86 53.19Q72.14 53.84 72.34 54.54Q72.54 55.24 72.69 55.94L72.69 55.94Q72.89 55.21 73.13 54.54Q73.36 53.86 73.64 53.16L73.64 53.16L78.79 39.89Q78.99 39.39 79.45 39.06Q79.91 38.74 80.49 38.74L80.49 38.74L85.44 38.74Z" fill="#ffffff"></path></svg>